<?xml version="1.0" encoding="UTF-8" standalone="no"?>
<!-- Created with Inkscape (http://www.inkscape.org/) -->

<svg
   width="54.610851mm"
   height="4.7050347mm"
   viewBox="0 0 54.610853 4.7050346"
   version="1.1"
   id="svg1"
   inkscape:export-filename="logo-white.svg"
   inkscape:export-xdpi="1"
   inkscape:export-ydpi="1"
   xmlns:inkscape="http://www.inkscape.org/namespaces/inkscape"
   xmlns:sodipodi="http://sodipodi.sourceforge.net/DTD/sodipodi-0.dtd"
   xmlns="http://www.w3.org/2000/svg"
   xmlns:svg="http://www.w3.org/2000/svg">
  <sodipodi:namedview
     id="namedview1"
     pagecolor="#ffffff"
     bordercolor="#999999"
     borderopacity="1"
     inkscape:showpageshadow="2"
     inkscape:pageopacity="0"
     inkscape:pagecheckerboard="0"
     inkscape:deskcolor="#d1d1d1"
     inkscape:document-units="mm">
    <inkscape:page
       x="0"
       y="0"
       width="54.610855"
       height="4.7050347"
       id="page2"
       margin="0"
       bleed="0"
       inkscape:label="logo-white" />
  </sodipodi:namedview>
  <defs
     id="defs1" />
  <g
     inkscape:label="Layer 1"
     inkscape:groupmode="layer"
     id="layer1"
     transform="translate(-70.727796,-158.94433)">
    <path
       class="cls-1"
       d="m 74.395541,159.73689 v 2.15636 l -0.695854,0.69585 h -1.875896 v 0.96838 h -0.915458 v -4.51644 h 2.788708 l 0.695854,0.69585 z m -2.57175,2.10609 h 1.653646 v -2.05317 h -1.653646 z"
       id="path1"
       style="fill:#ffffff;fill-opacity:1;stroke-width:0px" />
    <path
       class="cls-1"
       d="m 74.935291,163.56012 v -4.51908 h 0.915459 v 1.78064 h 1.770062 v -1.78064 h 0.915458 v 4.51908 h -0.915458 v -1.91029 H 75.85075 v 1.91029 z"
       id="path2"
       style="fill:#ffffff;fill-opacity:1;stroke-width:0px" />
    <path
       class="cls-1"
       d="m 79.165979,163.58393 v -0.73554 l 0.640291,-0.0317 v -3.03477 l -0.640291,-0.0317 v -0.73554 l 1.098021,0.0529 1.09802,-0.0529 v 0.73554 l -0.640291,0.0317 v 3.03477 l 0.640291,0.0317 v 0.73554 l -1.09802,-0.0529 z"
       id="path3"
       style="fill:#ffffff;fill-opacity:1;stroke-width:0px" />
    <path
       class="cls-1"
       d="m 82.036708,163.56012 v -0.80169 h 2.505604 v -1.0451 l -2.569104,-0.21167 v -1.79123 l 0.672042,-0.66939 h 2.74902 v 0.80169 h -2.505604 v 0.9816 l 2.569104,0.21431 v 1.85209 l -0.672041,0.67204 h -2.749021 z"
       id="path4"
       style="fill:#ffffff;fill-opacity:1;stroke-width:0px" />
    <path
       class="cls-1"
       d="m 86.116583,163.56012 v -4.51908 h 0.915458 v 1.78064 h 1.770063 v -1.78064 h 0.915458 v 4.51908 h -0.915458 v -1.91029 h -1.770063 v 1.91029 z"
       id="path5"
       style="fill:#ffffff;fill-opacity:1;stroke-width:0px" />
    <path
       class="cls-1"
       d="m 90.344624,163.58393 v -0.73554 l 0.640292,-0.0317 v -3.03477 l -0.640292,-0.0317 v -0.73554 l 1.098021,0.0529 1.098021,-0.0529 v 0.73554 l -0.640292,0.0317 v 3.03477 l 0.640292,0.0317 v 0.73554 l -1.098021,-0.0529 z"
       id="path6"
       style="fill:#ffffff;fill-opacity:1;stroke-width:0px" />
    <path
       class="cls-1"
       d="m 93.167729,163.56012 v -4.51908 h 0.963083 l 1.891771,3.19616 v -3.19616 h 0.865187 v 4.51908 h -0.960437 l -1.891771,-3.19617 v 3.19617 h -0.865188 z"
       id="path7"
       style="fill:#ffffff;fill-opacity:1;stroke-width:0px" />
    <path
       class="cls-1"
       d="m 97.543937,162.86162 v -3.12473 l 0.6985,-0.69585 h 2.582333 v 0.80169 h -2.362729 v 2.91835 h 1.780649 v -1.14829 h -1.084795 v -0.74348 h 1.910295 v 2.69081 h -2.828399 l -0.6985,-0.69585 z"
       id="path8"
       style="fill:#ffffff;fill-opacity:1;stroke-width:0px" />
    <path
       class="cls-1"
       d="m 110.10635,162.86162 v -3.12473 l 0.6985,-0.69585 h 2.30982 v 0.83344 h -2.0664 v 2.8522 h 2.1299 v 0.83344 h -2.37596 l -0.6985,-0.69585 z"
       id="path9"
       style="fill:#ffffff;fill-opacity:1;stroke-width:0px" />
    <path
       class="cls-1"
       d="m 113.69675,163.56012 v -4.51908 h 0.91546 v 3.74385 h 1.524 v -1.03187 h 0.8255 v 1.8071 h -3.26761 z"
       id="path10"
       style="fill:#ffffff;fill-opacity:1;stroke-width:0px" />
    <path
       class="cls-1"
       d="m 117.47764,162.86162 v -3.82058 h 0.91546 v 3.69358 h 1.69069 v -3.69358 h 0.91546 v 3.82058 l -0.69586,0.69586 h -2.12989 l -0.6985,-0.69586 z"
       id="path11"
       style="fill:#ffffff;fill-opacity:1;stroke-width:0px" />
    <path
       class="cls-1"
       d="m 125.1876,159.71043 v 1.143 l -0.35454,0.30427 0.48419,0.41275 v 1.31763 l -0.67204,0.67204 h -2.96863 v -4.51908 h 2.84163 l 0.67204,0.67204 z m -2.59556,1.18005 h 1.66423 v -1.10067 h -1.66423 v 1.10331 z m 0,1.91822 h 1.78065 v -1.24618 h -1.78065 z"
       id="path12"
       style="fill:#ffffff;fill-opacity:1;stroke-width:0px" />
    <g
       id="g14"
       transform="matrix(0.26458333,0,0,0.26458333,70.908333,159.01458)"
       style="fill:#ffffff;fill-opacity:1">
      <path
         class="cls-1"
         d="m 126.63,8.2 -4.5,-2.6 c -0.58,-0.34 -1.31,0.08 -1.31,0.75 v 5.19 c 0,0.67 0.73,1.09 1.31,0.75 l 4.5,-2.6 c 0.58,-0.34 0.58,-1.17 0,-1.51 z"
         id="path13"
         style="fill:#ffffff;fill-opacity:1;stroke-width:0px" />
      <path
         class="cls-1"
         d="M 140.97,7.67 129.2,0.87 c -0.99,-0.57 -2.23,0.14 -2.23,1.28 v 3.81 l 3.18,1.84 c 0.76,0.44 0.76,1.54 0,1.98 l -3.18,1.84 v 4.13 c 0,1.14 1.24,1.86 2.23,1.28 l 11.77,-6.8 c 0.99,-0.57 0.99,-2 0,-2.57 z"
         id="path14"
         style="fill:#ffffff;fill-opacity:1;stroke-width:0px" />
    </g>
  </g>
</svg>
